<?xml version="1.0" standalone="no"?>
<!DOCTYPE svg PUBLIC "-//W3C//DTD SVG 20010904//EN"
 "http://www.w3.org/TR/2001/REC-SVG-20010904/DTD/svg10.dtd">
<svg version="1.0" xmlns="http://www.w3.org/2000/svg"
 width="700.000000pt" height="700.000000pt" viewBox="0 0 700.000000 700.000000"
 preserveAspectRatio="xMidYMid meet">
<metadata>
Created by potrace 1.14, written by Peter Selinger 2001-2017
</metadata>
<g transform="translate(0.000000,700.000000) scale(0.100000,-0.100000)"
fill="#000000" stroke="none">
<path d="M2631 6120 c-4 -3 -7 -126 -6 -273 0 -148 -3 -270 -6 -273 -4 -2
-182 -4 -397 -4 -434 -1 -451 -3 -549 -66 -64 -41 -110 -87 -151 -151 -59 -93
-63 -121 -65 -554 l-2 -394 -285 0 c-157 1 -287 -3 -290 -7 -5 -6 -5 -410 -1
-428 0 -3 131 -4 290 -4 l290 1 0 -452 0 -452 -285 0 c-156 0 -287 -3 -291 -7
-12 -12 -10 -425 2 -429 5 -2 137 -3 292 -3 l281 1 0 -391 c0 -425 3 -456 58
-550 33 -56 112 -135 166 -167 94 -55 125 -58 551 -60 l392 -2 1 -280 c1 -154
2 -285 3 -290 1 -12 415 -14 427 -2 4 4 7 135 7 291 l0 283 451 0 452 1 -1
-277 c0 -152 1 -283 3 -291 3 -13 34 -15 220 -15 l217 0 0 290 0 290 330 1
c182 1 364 3 405 4 168 6 312 101 389 260 l36 75 3 413 c2 311 6 412 15 413 7
1 131 2 277 3 l265 1 0 218 c0 119 -3 217 -7 218 -5 0 -129 1 -278 1 l-270 1
0 452 0 451 271 0 c149 -1 274 1 278 4 9 7 9 423 0 430 -4 3 -129 5 -278 5
l-271 -1 -1 391 c0 214 -3 404 -5 420 -8 54 -72 170 -121 219 -75 74 -162 121
-248 132 -11 1 -193 3 -405 3 l-385 1 0 271 c0 169 -4 273 -10 278 -8 6 -402
8 -425 2 -3 0 -5 -124 -5 -273 l0 -273 -451 -3 -451 -2 -1 272 c0 150 -1 275
-1 278 -1 7 -421 7 -430 0z m2496 -993 c11 -12 9 -3226 -2 -3230 -9 -3 -3196
-1 -3220 2 -7 1 -10 542 -9 1604 1 881 2 1607 3 1614 0 6 11 13 24 15 44 6
3197 1 3204 -5z"/>
<path d="M2760 4242 c-7 -3 -10 -258 -10 -748 l0 -744 747 2 747 3 1 738 c0
407 -2 742 -5 746 -5 6 -1460 9 -1480 3z m1042 -442 c0 -3 2 -141 3 -307 1
-287 1 -303 -17 -304 -24 -1 -586 -1 -595 0 -6 1 -9 521 -4 602 1 13 37 15
306 15 168 0 306 -3 307 -6z"/>
</g>
</svg>
